<svg width="60" height="60" viewBox="0 0 60 60" fill="none" xmlns="http://www.w3.org/2000/svg">
<g filter="url(#filter0_b_273_817)">
<path fill-rule="evenodd" clip-rule="evenodd" d="M30 60C46.5685 60 60 46.5685 60 30C60 13.4315 46.5685 0 30 0C13.4315 0 0 13.4315 0 30C0 46.5685 13.4315 60 30 60ZM36.6982 13.8475C34.966 13.7662 34.4151 13.75 30 13.75C25.5849 13.75 25.034 13.7711 23.3018 13.8475C21.5695 13.9288 20.393 14.2001 19.3562 14.6031C18.2714 15.0106 17.2887 15.65 16.4767 16.4767C15.6493 17.2881 15.0098 18.271 14.6031 19.3562C14.2001 20.393 13.9288 21.5695 13.8475 23.3018C13.7662 25.034 13.75 25.5849 13.75 30C13.75 34.4151 13.7711 34.966 13.8475 36.6982C13.9288 38.4289 14.2001 39.6086 14.6031 40.6437C15.0109 41.7284 15.6503 42.7111 16.4767 43.5233C17.2885 44.3503 18.2713 44.9898 19.3562 45.3969C20.393 45.7983 21.5711 46.0713 23.3018 46.1525C25.034 46.2337 25.5849 46.25 30 46.25C34.4151 46.25 34.966 46.2289 36.6982 46.1525C38.4289 46.0713 39.6086 45.7983 40.6437 45.3969C41.7281 44.9886 42.7107 44.3493 43.5233 43.5233C44.3506 42.7118 44.9901 41.7289 45.3969 40.6437C45.7983 39.607 46.0713 38.4289 46.1525 36.6982C46.2337 34.966 46.25 34.4151 46.25 30C46.25 25.5849 46.2289 25.034 46.1525 23.3018C46.0713 21.5711 45.7983 20.3914 45.3969 19.3562C44.9889 18.2717 44.3496 17.2891 43.5233 16.4767C42.6198 15.5749 41.7162 15.0159 40.6437 14.6031C39.607 14.2001 38.4289 13.9288 36.6982 13.8475ZM24.2548 24.2548C25.7785 22.731 27.8451 21.875 30 21.875C32.1549 21.875 34.2215 22.731 35.7452 24.2548C37.269 25.7785 38.125 27.8451 38.125 30C38.125 32.1549 37.269 34.2215 35.7452 35.7452C34.2215 37.269 32.1549 38.125 30 38.125C27.8451 38.125 25.7785 37.269 24.2548 35.7452C22.731 34.2215 21.875 32.1549 21.875 30C21.875 27.8451 22.731 25.7785 24.2548 24.2548ZM39.9676 20.0324C40.3485 20.4134 40.5625 20.93 40.5625 21.4688C40.5625 22.0075 40.3485 22.5241 39.9676 22.9051C39.5866 23.286 39.07 23.5 38.5312 23.5C37.9925 23.5 37.4759 23.286 37.0949 22.9051C36.714 22.5241 36.5 22.0075 36.5 21.4688C36.5 20.93 36.714 20.4134 37.0949 20.0324C37.4759 19.6515 37.9925 19.4375 38.5312 19.4375C39.07 19.4375 39.5866 19.6515 39.9676 20.0324ZM33.4471 26.5529C32.5329 25.6386 31.2929 25.125 30 25.125C28.7071 25.125 27.4671 25.6386 26.5529 26.5529C25.6386 27.4671 25.125 28.7071 25.125 30C25.125 31.2929 25.6386 32.5329 26.5529 33.4471C27.4671 34.3614 28.7071 34.875 30 34.875C31.2929 34.875 32.5329 34.3614 33.4471 33.4471C34.3614 32.5329 34.875 31.2929 34.875 30C34.875 28.7071 34.3614 27.4671 33.4471 26.5529Z" fill="url(#paint0_linear_273_817)"/>
</g>
<defs>
<filter id="filter0_b_273_817" x="-400" y="-400" width="860" height="860" filterUnits="userSpaceOnUse" color-interpolation-filters="sRGB">
<feFlood flood-opacity="0" result="BackgroundImageFix"/>
<feGaussianBlur in="BackgroundImageFix" stdDeviation="200"/>
<feComposite in2="SourceAlpha" operator="in" result="effect1_backgroundBlur_273_817"/>
<feBlend mode="normal" in="SourceGraphic" in2="effect1_backgroundBlur_273_817" result="shape"/>
</filter>
<linearGradient id="paint0_linear_273_817" x1="0" y1="0" x2="60" y2="60" gradientUnits="userSpaceOnUse">
<stop stop-color="#FE8C00"/>
<stop offset="1" stop-color="#F83600"/>
</linearGradient>
</defs>
</svg>
